<svg viewBox="0 0 800 500" xmlns="http://www.w3.org/2000/svg" font-family="'Space Grotesk', 'DM Sans', system-ui, sans-serif">
  <!-- Background -->
  <rect width="800" height="500" fill="#0f1117"/>

  <!-- Grid lines -->
  <line x1="0" y1="0" x2="800" y2="500" stroke="#1e2330" stroke-width="0.5"/>
  <line x1="800" y1="0" x2="0" y2="500" stroke="#1e2330" stroke-width="0.5"/>
  <line x1="400" y1="0" x2="400" y2="500" stroke="#1a1f2e" stroke-width="0.5"/>
  <line x1="0" y1="250" x2="800" y2="250" stroke="#1a1f2e" stroke-width="0.5"/>

  <!-- RTSP feed panels -->
  <!-- Camera 1 -->
  <rect x="40" y="60" width="340" height="220" rx="10" fill="#141824" stroke="#1e2330" stroke-width="1.5"/>
  <rect x="40" y="60" width="340" height="30" rx="10" fill="#191e2b"/>
  <rect x="40" y="80" width="340" height="10" fill="#191e2b"/>
  <circle cx="60" cy="75" r="5" fill="#ef4444" opacity="0.8"/>
  <circle cx="78" cy="75" r="5" fill="#f59e0b" opacity="0.8"/>
  <circle cx="96" cy="75" r="5" fill="#22c55e" opacity="0.8"/>
  <text x="200" y="79" text-anchor="middle" fill="#4a5568" font-size="10">CAMERA 01 — RTSP</text>

  <!-- Camera feed mockup 1 - scan lines -->
  <rect x="48" y="100" width="324" height="172" rx="4" fill="#0c0f16"/>
  <!-- Simulated video content - person silhouette area -->
  <rect x="140" y="110" width="80" height="140" rx="4" fill="#111520" opacity="0.6"/>
  <ellipse cx="180" cy="130" rx="18" ry="18" fill="#1a2035" opacity="0.7"/>
  <rect x="162" y="148" width="36" height="60" rx="6" fill="#1a2035" opacity="0.6"/>
  <!-- Scanlines -->
  <rect x="48" y="100" width="324" height="1" fill="#00d4ff" opacity="0.04"/>
  <rect x="48" y="108" width="324" height="1" fill="#00d4ff" opacity="0.04"/>
  <rect x="48" y="116" width="324" height="1" fill="#00d4ff" opacity="0.04"/>
  <rect x="48" y="124" width="324" height="1" fill="#00d4ff" opacity="0.04"/>
  <rect x="48" y="132" width="324" height="1" fill="#00d4ff" opacity="0.04"/>
  <rect x="48" y="140" width="324" height="1" fill="#00d4ff" opacity="0.04"/>
  <rect x="48" y="148" width="324" height="1" fill="#00d4ff" opacity="0.04"/>
  <rect x="48" y="156" width="324" height="1" fill="#00d4ff" opacity="0.04"/>
  <rect x="48" y="164" width="324" height="1" fill="#00d4ff" opacity="0.04"/>
  <rect x="48" y="172" width="324" height="1" fill="#00d4ff" opacity="0.04"/>
  <rect x="48" y="180" width="324" height="1" fill="#00d4ff" opacity="0.04"/>
  <rect x="48" y="188" width="324" height="1" fill="#00d4ff" opacity="0.04"/>
  <rect x="48" y="196" width="324" height="1" fill="#00d4ff" opacity="0.04"/>
  <rect x="48" y="204" width="324" height="1" fill="#00d4ff" opacity="0.04"/>
  <rect x="48" y="212" width="324" height="1" fill="#00d4ff" opacity="0.04"/>
  <rect x="48" y="220" width="324" height="1" fill="#00d4ff" opacity="0.04"/>
  <rect x="48" y="228" width="324" height="1" fill="#00d4ff" opacity="0.04"/>
  <rect x="48" y="236" width="324" height="1" fill="#00d4ff" opacity="0.04"/>
  <rect x="48" y="244" width="324" height="1" fill="#00d4ff" opacity="0.04"/>
  <rect x="48" y="252" width="324" height="1" fill="#00d4ff" opacity="0.04"/>
  <rect x="48" y="260" width="324" height="1" fill="#00d4ff" opacity="0.04"/>
  <!-- REC indicator -->
  <circle cx="64" cy="116" r="5" fill="#ef4444" opacity="0.9"/>
  <text x="75" y="120" fill="#ef4444" font-size="10" font-weight="600" opacity="0.9">REC</text>
  <!-- Timestamp -->
  <text x="280" y="265" fill="#4a5568" font-size="9" text-anchor="middle">2024-01-15  08:42:17</text>

  <!-- Face detection box -->
  <rect x="162" y="108" width="40" height="44" rx="2" fill="none" stroke="#00d4ff" stroke-width="1.5" stroke-dasharray="4 2" opacity="0.8"/>
  <text x="182" y="104" text-anchor="middle" fill="#00d4ff" font-size="8" font-weight="600">DETECTED</text>

  <!-- Camera 2 -->
  <rect x="420" y="60" width="340" height="220" rx="10" fill="#141824" stroke="#1e2330" stroke-width="1.5"/>
  <rect x="420" y="60" width="340" height="30" rx="10" fill="#191e2b"/>
  <rect x="420" y="80" width="340" height="10" fill="#191e2b"/>
  <circle cx="440" cy="75" r="5" fill="#ef4444" opacity="0.8"/>
  <circle cx="458" cy="75" r="5" fill="#f59e0b" opacity="0.8"/>
  <circle cx="476" cy="75" r="5" fill="#22c55e" opacity="0.8"/>
  <text x="590" y="79" text-anchor="middle" fill="#4a5568" font-size="10">CAMERA 02 — RTSP</text>
  <rect x="428" y="100" width="324" height="172" rx="4" fill="#0c0f16"/>
  <!-- Scan lines cam 2 -->
  <rect x="428" y="100" width="324" height="1" fill="#00d4ff" opacity="0.04"/>
  <rect x="428" y="110" width="324" height="1" fill="#00d4ff" opacity="0.04"/>
  <rect x="428" y="120" width="324" height="1" fill="#00d4ff" opacity="0.04"/>
  <rect x="428" y="130" width="324" height="1" fill="#00d4ff" opacity="0.04"/>
  <rect x="428" y="140" width="324" height="1" fill="#00d4ff" opacity="0.04"/>
  <rect x="428" y="150" width="324" height="1" fill="#00d4ff" opacity="0.04"/>
  <rect x="428" y="160" width="324" height="1" fill="#00d4ff" opacity="0.04"/>
  <rect x="428" y="170" width="324" height="1" fill="#00d4ff" opacity="0.04"/>
  <rect x="428" y="180" width="324" height="1" fill="#00d4ff" opacity="0.04"/>
  <rect x="428" y="190" width="324" height="1" fill="#00d4ff" opacity="0.04"/>
  <rect x="428" y="200" width="324" height="1" fill="#00d4ff" opacity="0.04"/>
  <rect x="428" y="210" width="324" height="1" fill="#00d4ff" opacity="0.04"/>
  <rect x="428" y="220" width="324" height="1" fill="#00d4ff" opacity="0.04"/>
  <rect x="428" y="230" width="324" height="1" fill="#00d4ff" opacity="0.04"/>
  <rect x="428" y="240" width="324" height="1" fill="#00d4ff" opacity="0.04"/>
  <rect x="428" y="250" width="324" height="1" fill="#00d4ff" opacity="0.04"/>
  <rect x="428" y="260" width="324" height="1" fill="#00d4ff" opacity="0.04"/>
  <!-- RTSP status -->
  <circle cx="444" cy="116" r="5" fill="#22c55e" opacity="0.9"/>
  <text x="455" y="120" fill="#22c55e" font-size="10" font-weight="600" opacity="0.9">LIVE</text>
  <text x="656" y="265" fill="#4a5568" font-size="9" text-anchor="middle">2024-01-15  08:42:17</text>

  <!-- Control panel bottom -->
  <rect x="40" y="300" width="720" height="160" rx="10" fill="#141824" stroke="#1e2330" stroke-width="1.5"/>
  <rect x="40" y="300" width="720" height="36" rx="10" fill="#191e2b"/>
  <rect x="40" y="320" width="720" height="16" fill="#191e2b"/>
  <text x="400" y="322" text-anchor="middle" fill="#6b7280" font-size="11" font-weight="600" letter-spacing="2">CAMERA CONTROLS</text>

  <!-- Control buttons -->
  <rect x="64" y="352" width="90" height="34" rx="8" fill="#1a2035" stroke="#00d4ff" stroke-width="1" opacity="0.8"/>
  <text x="109" y="374" text-anchor="middle" fill="#00d4ff" font-size="11">PTZ</text>

  <rect x="168" y="352" width="90" height="34" rx="8" fill="#1a2035" stroke="#374151" stroke-width="1"/>
  <text x="213" y="374" text-anchor="middle" fill="#9ca3af" font-size="11">Snapshot</text>

  <rect x="272" y="352" width="90" height="34" rx="8" fill="#1a2035" stroke="#374151" stroke-width="1"/>
  <text x="317" y="374" text-anchor="middle" fill="#9ca3af" font-size="11">IR LED</text>

  <rect x="376" y="352" width="90" height="34" rx="8" fill="#1a2035" stroke="#374151" stroke-width="1"/>
  <text x="421" y="374" text-anchor="middle" fill="#9ca3af" font-size="11">Alarm</text>

  <rect x="480" y="352" width="90" height="34" rx="8" fill="#1a2035" stroke="#374151" stroke-width="1"/>
  <text x="525" y="374" text-anchor="middle" fill="#9ca3af" font-size="11">Privacy</text>

  <rect x="584" y="352" width="90" height="34" rx="8" fill="#1a2035" stroke="#374151" stroke-width="1"/>
  <text x="629" y="374" text-anchor="middle" fill="#9ca3af" font-size="11">Reboot</text>

  <!-- Status bar -->
  <rect x="64" y="400" width="120" height="24" rx="6" fill="#0c2918" stroke="#22c55e" stroke-width="1" opacity="0.8"/>
  <circle cx="78" cy="412" r="4" fill="#22c55e"/>
  <text x="134" y="416" text-anchor="middle" fill="#22c55e" font-size="10">CONNECTED</text>

  <rect x="200" y="400" width="150" height="24" rx="6" fill="#141824" stroke="#374151" stroke-width="1"/>
  <text x="275" y="416" text-anchor="middle" fill="#6b7280" font-size="10">pyezvizapi + OpenCV</text>

  <rect x="366" y="400" width="150" height="24" rx="6" fill="#141824" stroke="#374151" stroke-width="1"/>
  <text x="441" y="416" text-anchor="middle" fill="#6b7280" font-size="10">customtkinter  v5</text>

  <!-- Camera icon top right -->
  <text x="694" y="340" text-anchor="middle" fill="#1e2330" font-size="48">⬛</text>
  <!-- stylized camera -->
  <rect x="668" y="316" width="52" height="38" rx="6" fill="none" stroke="#2d3748" stroke-width="2"/>
  <circle cx="694" cy="335" r="10" fill="none" stroke="#2d3748" stroke-width="2"/>
  <circle cx="694" cy="335" r="5" fill="#2d3748"/>
  <rect x="700" y="310" width="16" height="10" rx="2" fill="#2d3748"/>

  <!-- Title -->
  <text x="400" y="472" text-anchor="middle" fill="#374151" font-size="12" letter-spacing="3">EZVIZ CAMERA MONITORING &amp; CONTROLLING</text>
</svg>
