<svg width="1600" height="2200" viewBox="0 0 1600 2200" fill="none" xmlns="http://www.w3.org/2000/svg">
  <g stroke="#D8B36A" stroke-width="3" stroke-linecap="round" stroke-linejoin="round">
    <path d="M130 150H420" />
    <path d="M1180 150H1470" />
    <path d="M130 2050H420" />
    <path d="M1180 2050H1470" />
    <path d="M95 185V640" />
    <path d="M1505 185V640" />
    <path d="M95 1560V2015" />
    <path d="M1505 1560V2015" />
    <path d="M170 150L118 150L118 202" />
    <path d="M1430 150L1482 150L1482 202" />
    <path d="M170 2050L118 2050L118 1998" />
    <path d="M1430 2050L1482 2050L1482 1998" />
    <circle cx="108" cy="108" r="52" />
    <circle cx="1492" cy="108" r="52" />
    <circle cx="108" cy="2092" r="52" />
    <circle cx="1492" cy="2092" r="52" />
  </g>
  <g fill="#D8B36A">
    <circle cx="800" cy="150" r="8" />
    <circle cx="800" cy="2050" r="8" />
    <circle cx="150" cy="1100" r="8" />
    <circle cx="1450" cy="1100" r="8" />
    <path d="M140 93L155 103L170 93L160 108L170 123L155 113L140 123L150 108L140 93Z" />
    <path d="M1430 93L1445 103L1460 93L1450 108L1460 123L1445 113L1430 123L1440 108L1430 93Z" />
    <path d="M140 2077L155 2087L170 2077L160 2092L170 2107L155 2097L140 2107L150 2092L140 2077Z" />
    <path d="M1430 2077L1445 2087L1460 2077L1450 2092L1460 2107L1445 2097L1430 2107L1440 2092L1430 2077Z" />
    <path d="M760 136L772 144L784 136L776 148L784 160L772 152L760 160L768 148L760 136Z" />
    <path d="M816 136L828 144L840 136L832 148L840 160L828 152L816 160L824 148L816 136Z" />
    <path d="M760 2036L772 2044L784 2036L776 2048L784 2060L772 2052L760 2060L768 2048L760 2036Z" />
    <path d="M816 2036L828 2044L840 2036L832 2048L840 2060L828 2052L816 2060L824 2048L816 2036Z" />
    <circle cx="108" cy="108" r="26" />
    <path d="M1492 84C1527 84 1555 112 1555 147C1519 147 1492 119 1492 84Z" />
    <path d="M1492 2108C1527 2108 1555 2080 1555 2045C1519 2045 1492 2073 1492 2108Z" />
    <path d="M108 2060C145 2060 176 2091 176 2128C138 2128 108 2098 108 2060Z" />
    <path d="M72 2092C84 2069 105 2055 132 2055C159 2055 180 2069 192 2092C180 2115 159 2129 132 2129C105 2129 84 2115 72 2092Z" fill="none" stroke="#D8B36A" stroke-width="3"/>
    <circle cx="132" cy="2092" r="17" />
    <path d="M800 128L806 140L818 146L806 152L800 164L794 152L782 146L794 140L800 128Z" />
    <path d="M800 2028L806 2040L818 2046L806 2052L800 2064L794 2052L782 2046L794 2040L800 2028Z" />
  </g>
</svg>
